<svg id="visual" viewBox="0 0 900 600" width="900" height="600" xmlns="http://www.w3.org/2000/svg" xmlns:xlink="http://www.w3.org/1999/xlink" version="1.1"><rect x="0" y="0" width="900" height="600" fill="#001220"></rect><defs><linearGradient id="grad1_0" x1="33.3%" y1="0%" x2="100%" y2="100%"><stop offset="20%" stop-color="#8ec1d6" stop-opacity="1"></stop><stop offset="80%" stop-color="#8ec1d6" stop-opacity="1"></stop></linearGradient></defs><defs><linearGradient id="grad1_1" x1="33.3%" y1="0%" x2="100%" y2="100%"><stop offset="20%" stop-color="#8ec1d6" stop-opacity="1"></stop><stop offset="80%" stop-color="#74a0b5" stop-opacity="1"></stop></linearGradient></defs><defs><linearGradient id="grad1_2" x1="33.3%" y1="0%" x2="100%" y2="100%"><stop offset="20%" stop-color="#5b8095" stop-opacity="1"></stop><stop offset="80%" stop-color="#74a0b5" stop-opacity="1"></stop></linearGradient></defs><defs><linearGradient id="grad1_3" x1="33.3%" y1="0%" x2="100%" y2="100%"><stop offset="20%" stop-color="#5b8095" stop-opacity="1"></stop><stop offset="80%" stop-color="#446276" stop-opacity="1"></stop></linearGradient></defs><defs><linearGradient id="grad1_4" x1="33.3%" y1="0%" x2="100%" y2="100%"><stop offset="20%" stop-color="#2d4657" stop-opacity="1"></stop><stop offset="80%" stop-color="#446276" stop-opacity="1"></stop></linearGradient></defs><defs><linearGradient id="grad1_5" x1="33.3%" y1="0%" x2="100%" y2="100%"><stop offset="20%" stop-color="#2d4657" stop-opacity="1"></stop><stop offset="80%" stop-color="#172b3b" stop-opacity="1"></stop></linearGradient></defs><defs><linearGradient id="grad1_6" x1="33.3%" y1="0%" x2="100%" y2="100%"><stop offset="20%" stop-color="#001220" stop-opacity="1"></stop><stop offset="80%" stop-color="#172b3b" stop-opacity="1"></stop></linearGradient></defs><defs><linearGradient id="grad2_0" x1="0%" y1="0%" x2="66.7%" y2="100%"><stop offset="20%" stop-color="#8ec1d6" stop-opacity="1"></stop><stop offset="80%" stop-color="#8ec1d6" stop-opacity="1"></stop></linearGradient></defs><defs><linearGradient id="grad2_1" x1="0%" y1="0%" x2="66.7%" y2="100%"><stop offset="20%" stop-color="#74a0b5" stop-opacity="1"></stop><stop offset="80%" stop-color="#8ec1d6" stop-opacity="1"></stop></linearGradient></defs><defs><linearGradient id="grad2_2" x1="0%" y1="0%" x2="66.7%" y2="100%"><stop offset="20%" stop-color="#74a0b5" stop-opacity="1"></stop><stop offset="80%" stop-color="#5b8095" stop-opacity="1"></stop></linearGradient></defs><defs><linearGradient id="grad2_3" x1="0%" y1="0%" x2="66.7%" y2="100%"><stop offset="20%" stop-color="#446276" stop-opacity="1"></stop><stop offset="80%" stop-color="#5b8095" stop-opacity="1"></stop></linearGradient></defs><defs><linearGradient id="grad2_4" x1="0%" y1="0%" x2="66.7%" y2="100%"><stop offset="20%" stop-color="#446276" stop-opacity="1"></stop><stop offset="80%" stop-color="#2d4657" stop-opacity="1"></stop></linearGradient></defs><defs><linearGradient id="grad2_5" x1="0%" y1="0%" x2="66.7%" y2="100%"><stop offset="20%" stop-color="#172b3b" stop-opacity="1"></stop><stop offset="80%" stop-color="#2d4657" stop-opacity="1"></stop></linearGradient></defs><defs><linearGradient id="grad2_6" x1="0%" y1="0%" x2="66.7%" y2="100%"><stop offset="20%" stop-color="#172b3b" stop-opacity="1"></stop><stop offset="80%" stop-color="#001220" stop-opacity="1"></stop></linearGradient></defs><g transform="translate(900, 0)"><path d="M0 297.5C-17.1 270.5 -34.3 243.5 -54.3 237.9C-74.3 232.2 -97.3 247.8 -121.5 252.3C-145.7 256.7 -171.2 249.9 -185.5 232.6C-199.7 215.2 -202.6 187.2 -205.6 164C-208.6 140.8 -211.7 122.4 -220.7 106.3C-229.7 90.2 -244.6 76.3 -258.4 59C-272.1 41.6 -284.8 20.8 -297.5 0L0 0Z" fill="#0c1f2d"></path><path d="M0 255C-14.7 231.9 -29.4 208.8 -46.5 203.9C-63.7 199 -83.4 212.4 -104.1 216.2C-124.9 220 -146.8 214.2 -159 199.3C-171.2 184.4 -173.7 160.4 -176.2 140.6C-178.8 120.7 -181.5 104.9 -189.2 91.1C-196.9 77.3 -209.6 65.4 -221.4 50.5C-233.2 35.7 -244.1 17.8 -255 0L0 0Z" fill="#223849"></path><path d="M0 212.5C-12.2 193.2 -24.5 174 -38.8 169.9C-53.1 165.9 -69.5 177 -86.8 180.2C-104.1 183.4 -122.3 178.5 -132.5 166.1C-142.6 153.7 -144.7 133.7 -146.9 117.1C-149 100.6 -151.2 87.4 -157.7 75.9C-164.1 64.4 -174.7 54.5 -184.5 42.1C-194.4 29.7 -203.4 14.9 -212.5 0L0 0Z" fill="#385466"></path><path d="M0 170C-9.8 154.6 -19.6 139.2 -31 135.9C-42.5 132.7 -55.6 141.6 -69.4 144.2C-83.3 146.7 -97.9 142.8 -106 132.9C-114.1 123 -115.8 107 -117.5 93.7C-119.2 80.5 -121 70 -126.1 60.7C-131.3 51.5 -139.8 43.6 -147.6 33.7C-155.5 23.8 -162.7 11.9 -170 0L0 0Z" fill="#4f7185"></path><path d="M0 127.5C-7.3 115.9 -14.7 104.4 -23.3 101.9C-31.9 99.5 -41.7 106.2 -52.1 108.1C-62.4 110 -73.4 107.1 -79.5 99.7C-85.6 92.2 -86.8 80.2 -88.1 70.3C-89.4 60.3 -90.7 52.5 -94.6 45.6C-98.5 38.6 -104.8 32.7 -110.7 25.3C-116.6 17.8 -122.1 8.9 -127.5 0L0 0Z" fill="#6890a5"></path><path d="M0 85C-4.9 77.3 -9.8 69.6 -15.5 68C-21.2 66.3 -27.8 70.8 -34.7 72.1C-41.6 73.3 -48.9 71.4 -53 66.4C-57.1 61.5 -57.9 53.5 -58.7 46.9C-59.6 40.2 -60.5 35 -63.1 30.4C-65.6 25.8 -69.9 21.8 -73.8 16.8C-77.7 11.9 -81.4 5.9 -85 0L0 0Z" fill="#81b0c6"></path><path d="M0 42.5C-2.4 38.6 -4.9 34.8 -7.8 34C-10.6 33.2 -13.9 35.4 -17.4 36C-20.8 36.7 -24.5 35.7 -26.5 33.2C-28.5 30.7 -28.9 26.7 -29.4 23.4C-29.8 20.1 -30.2 17.5 -31.5 15.2C-32.8 12.9 -34.9 10.9 -36.9 8.4C-38.9 5.9 -40.7 3 -42.5 0L0 0Z" fill="#8ec1d6"></path></g><g transform="translate(0, 600)"><path d="M0 -297.5C15.8 -267.1 31.7 -236.8 53.4 -234C75.1 -231.2 102.7 -256 124.5 -258.6C146.3 -261.2 162.3 -241.6 180.2 -225.9C198.1 -210.3 217.8 -198.6 225.2 -179.6C232.5 -160.5 227.5 -134.1 238.8 -115C250 -95.9 277.5 -84.1 290 -66.2C302.5 -48.3 300 -24.1 297.5 0L0 0Z" fill="#0c1f2d"></path><path d="M0 -255C13.6 -229 27.2 -202.9 45.8 -200.6C64.4 -198.2 88.1 -219.4 106.7 -221.6C125.4 -223.9 139.1 -207.1 154.4 -193.7C169.8 -180.3 186.7 -170.2 193 -153.9C199.3 -137.6 195 -114.9 204.6 -98.6C214.3 -82.2 237.9 -72.1 248.6 -56.7C259.3 -41.4 257.1 -20.7 255 0L0 0Z" fill="#223849"></path><path d="M0 -212.5C11.3 -190.8 22.6 -169.1 38.1 -167.1C53.7 -165.1 73.4 -182.8 88.9 -184.7C104.5 -186.6 115.9 -172.6 128.7 -161.4C141.5 -150.2 155.6 -141.9 160.8 -128.3C166.1 -114.6 162.5 -95.8 170.5 -82.1C178.6 -68.5 198.2 -60.1 207.1 -47.3C216.1 -34.5 214.3 -17.2 212.5 0L0 0Z" fill="#385466"></path><path d="M0 -170C9.1 -152.6 18.1 -135.3 30.5 -133.7C42.9 -132.1 58.7 -146.3 71.2 -147.8C83.6 -149.2 92.8 -138 103 -129.1C113.2 -120.2 124.5 -113.5 128.7 -102.6C132.9 -91.7 130 -76.6 136.4 -65.7C142.9 -54.8 158.6 -48.1 165.7 -37.8C172.9 -27.6 171.4 -13.8 170 0L0 0Z" fill="#4f7185"></path><path d="M0 -127.5C6.8 -114.5 13.6 -101.5 22.9 -100.3C32.2 -99.1 44 -109.7 53.4 -110.8C62.7 -111.9 69.6 -103.5 77.2 -96.8C84.9 -90.1 93.3 -85.1 96.5 -77C99.7 -68.8 97.5 -57.5 102.3 -49.3C107.1 -41.1 118.9 -36.1 124.3 -28.4C129.6 -20.7 128.6 -10.3 127.5 0L0 0Z" fill="#6890a5"></path><path d="M0 -85C4.5 -76.3 9.1 -67.6 15.3 -66.9C21.5 -66.1 29.4 -73.1 35.6 -73.9C41.8 -74.6 46.4 -69 51.5 -64.6C56.6 -60.1 62.2 -56.7 64.3 -51.3C66.4 -45.9 65 -38.3 68.2 -32.9C71.4 -27.4 79.3 -24 82.9 -18.9C86.4 -13.8 85.7 -6.9 85 0L0 0Z" fill="#81b0c6"></path><path d="M0 -42.5C2.3 -38.2 4.5 -33.8 7.6 -33.4C10.7 -33 14.7 -36.6 17.8 -36.9C20.9 -37.3 23.2 -34.5 25.7 -32.3C28.3 -30 31.1 -28.4 32.2 -25.7C33.2 -22.9 32.5 -19.2 34.1 -16.4C35.7 -13.7 39.6 -12 41.4 -9.5C43.2 -6.9 42.9 -3.4 42.5 0L0 0Z" fill="#8ec1d6"></path></g></svg>